# xmcd
#
# Track frame offsets: 
#        150
#        16212
#        44405
#        61550
#        77387
#        103872
#        124237
#        140012
#        158060
#        187387
#
# Disc length: 2690 seconds
#
# Revision: 18
# Processed by: cddbd v1.5.2PL0 Copyright (c) Steve Scherf et al.
# Submitted via: ExactAudioCopy v1.1
#
DISCID=820a800a
DTITLE=?? and China Blue - ?????
DYEAR=1996
DGENRE=Rock and Roll
TTITLE0=????
TTITLE1=?????
TTITLE2=???,???
TTITLE3=?
TTITLE4=????
TTITLE5=LAST DANCE
TTITLE6=??
TTITLE7=?????
TTITLE8=?????
TTITLE9=????
EXTD=YEAR: 1996
EXTT0=
EXTT1=
EXTT2=
EXTT3=
EXTT4=
EXTT5=
EXTT6=
EXTT7=
EXTT8=
EXTT9=
PLAYORDER=
